<?xml version="1.0" standalone="no"?>
<!DOCTYPE svg PUBLIC "-//W3C//DTD SVG 20010904//EN"
 "http://www.w3.org/TR/2001/REC-SVG-20010904/DTD/svg10.dtd">
<svg version="1.0" xmlns="http://www.w3.org/2000/svg"
 width="50px" height="50px" viewBox="0 0 1280.000000 1164.000000"
 preserveAspectRatio="xMidYMid meet">
<metadata>
Created by potrace 1.15, written by Peter Selinger 2001-2017
</metadata>
<g transform="translate(0.000000,1164.000000) scale(0.100000,-0.100000)"
fill="#fff" stroke="none">
<path d="M3634 11453 c-76 -104 -176 -239 -221 -301 -46 -63 -85 -108 -87
-100 -3 7 -19 81 -37 163 -30 143 -47 201 -49 165 -3 -65 -21 -212 -30 -241
-13 -47 -51 -103 -72 -107 -31 -6 -40 32 -29 121 10 86 8 106 -8 65 -15 -39
-36 -51 -81 -43 -47 8 -47 7 -24 -76 19 -69 14 -95 -15 -79 -33 17 -75 11
-122 -18 -72 -47 -166 -158 -156 -185 3 -8 33 -22 66 -31 34 -9 61 -20 61 -24
0 -16 -44 -33 -160 -62 -66 -17 -140 -38 -163 -47 -52 -20 -107 -60 -107 -77
0 -27 -30 -39 -93 -37 -53 1 -69 -3 -108 -28 -26 -16 -59 -45 -74 -65 -34 -44
-51 -47 -30 -5 9 17 14 34 10 37 -19 20 -155 -63 -254 -155 -89 -82 -109 -117
-93 -162 6 -17 7 -33 2 -36 -5 -3 -38 -5 -73 -4 -104 2 -115 -20 -38 -78 28
-21 49 -42 47 -48 -1 -5 -45 -15 -97 -21 -108 -12 -160 -35 -209 -90 -48 -56
-78 -133 -99 -253 -23 -140 -43 -180 -102 -208 -55 -26 -104 -83 -149 -173
-45 -91 -72 -123 -120 -145 -38 -17 -51 -18 -155 -8 -170 17 -206 0 -241 -111
-24 -78 -30 -253 -11 -310 14 -41 14 -47 0 -61 -9 -10 -23 -13 -37 -10 -22 7
-80 62 -88 86 -3 8 -8 12 -11 9 -3 -3 1 -55 9 -115 18 -125 14 -236 -11 -308
-10 -26 -39 -81 -66 -122 -76 -117 -109 -193 -130 -300 -10 -55 1 -293 26
-526 19 -182 30 -206 55 -128 17 50 63 102 87 97 13 -2 19 -15 21 -47 4 -57
-27 -143 -85 -235 -44 -71 -44 -71 -38 -141 6 -69 5 -72 -44 -172 -84 -171
-138 -383 -161 -633 -13 -130 -6 -180 24 -180 24 0 28 -28 37 -250 9 -232 20
-304 75 -504 45 -159 48 -232 14 -294 -20 -39 -22 -52 -17 -125 15 -194 116
-550 262 -922 121 -309 232 -531 353 -705 118 -169 216 -321 347 -535 275
-450 448 -678 740 -971 451 -453 934 -770 1693 -1113 455 -206 597 -247 1277
-371 619 -113 696 -117 1320 -66 841 69 1098 105 1366 192 90 29 111 40 142
74 19 22 42 40 49 40 8 0 48 -9 89 -20 96 -25 162 -25 213 0 23 11 102 72 176
136 74 63 166 134 205 157 167 98 631 307 681 307 40 0 112 48 203 135 111
106 165 145 201 145 80 0 386 142 571 265 61 41 137 103 184 151 92 94 129
111 202 92 76 -19 153 8 153 53 0 26 -15 31 -60 19 -91 -25 -76 4 90 175 118
121 158 170 147 181 -2 3 -32 -3 -66 -12 -43 -12 -65 -14 -72 -7 -16 16 44 57
152 104 52 22 109 52 127 66 31 23 33 27 26 69 -6 40 -2 51 35 112 48 80 58
119 38 147 -15 19 -16 19 -51 3 -50 -25 -106 -78 -187 -179 -39 -49 -73 -89
-75 -89 -15 0 145 286 239 427 253 380 591 783 655 783 16 0 24 10 31 38 15
53 13 135 -3 157 -13 18 -18 18 -48 7 -49 -17 -58 -15 -58 13 0 94 185 391
396 637 88 101 154 199 154 228 0 24 38 90 85 145 76 90 93 144 74 230 -18 81
-3 120 82 212 68 73 160 206 289 418 69 114 152 215 176 215 30 0 25 32 -15
98 -64 106 -74 198 -46 432 17 147 20 280 5 280 -16 0 -43 -69 -90 -231 -24
-79 -55 -171 -70 -204 -53 -121 -90 -121 -90 -1 0 73 7 117 60 421 27 149 31
196 27 270 -10 156 -90 425 -131 441 -29 11 -50 92 -51 198 0 122 9 128 90 67
30 -23 57 -41 60 -41 10 0 4 36 -14 75 -41 91 -127 141 -231 133 -71 -5 -101
-24 -148 -94 -19 -27 -37 -50 -42 -52 -4 -2 -11 20 -15 47 -8 62 -66 160 -218
369 -322 445 -807 1007 -1040 1206 -353 302 -871 658 -1166 803 -76 38 -108
48 -166 52 -83 7 -95 15 -119 73 -36 88 -60 129 -85 147 -31 22 -94 41 -136
41 -17 0 -41 7 -53 16 -20 14 -22 23 -20 77 l3 62 -40 -1 c-22 0 -60 -4 -85
-8 -68 -11 -91 11 -101 99 -5 37 -11 70 -13 73 -12 11 -39 -12 -106 -95 -126
-154 -144 -163 -154 -79 -11 88 -22 95 -123 81 -62 -9 -78 0 -87 50 -8 40 -17
45 -68 31 -53 -14 -135 8 -292 78 -158 72 -249 96 -378 101 -155 6 -260 23
-548 89 -257 58 -333 67 -540 64 l-185 -3 -68 38 c-97 55 -162 63 -334 42
-153 -20 -228 -16 -276 14 -18 11 -60 25 -92 31 -94 18 -855 22 -1388 8 -326
-9 -477 -10 -477 -3 0 6 15 64 34 130 39 135 56 221 56 277 0 41 -14 78 -30
78 -5 0 -71 -84 -146 -187z m2261 -534 c400 -25 841 -91 1210 -179 209 -50
294 -77 504 -161 182 -73 298 -117 738 -275 546 -196 770 -295 1166 -516 324
-180 595 -358 917 -599 345 -259 555 -444 678 -598 72 -89 82 -98 142 -121 53
-20 79 -40 142 -104 93 -94 242 -283 320 -407 54 -86 80 -141 93 -202 4 -20
16 -33 39 -42 41 -18 70 -81 114 -250 70 -267 118 -647 109 -848 -6 -136 -16
-173 -50 -186 -34 -13 -47 -65 -72 -279 -17 -155 -45 -270 -84 -356 -38 -81
-71 -111 -124 -111 -54 0 -64 -20 -77 -152 -10 -107 -22 -148 -68 -239 -66
-128 -169 -246 -248 -285 -40 -19 -49 -20 -93 -8 l-50 12 -41 -37 c-58 -53
-183 -132 -327 -209 -214 -113 -253 -121 -300 -61 -62 80 -68 85 -86 78 -11
-4 -45 -62 -83 -140 -64 -133 -137 -231 -165 -222 -29 10 -33 36 -20 114 7 42
15 84 19 92 3 10 0 13 -9 10 -8 -3 -55 -64 -105 -138 -110 -159 -169 -229
-184 -214 -8 8 -5 27 10 64 24 61 20 120 -11 151 -36 36 -90 -2 -221 -152 -54
-63 -130 -119 -159 -119 -10 0 -23 9 -29 20 -14 26 -2 72 46 175 41 89 57 185
31 185 -25 0 -75 -82 -144 -233 -69 -151 -108 -217 -129 -217 -20 0 -17 82 5
202 10 54 15 98 11 98 -4 0 -20 -30 -36 -66 -45 -107 -140 -196 -189 -178 -9
4 -21 27 -28 52 -18 68 -39 77 -172 76 -155 -1 -253 -31 -404 -123 -115 -69
-131 -68 -198 12 -30 36 -47 34 -79 -8 -32 -43 -83 -75 -118 -75 -48 0 -28 48
64 160 112 136 58 138 -146 6 -175 -113 -283 -146 -483 -146 -155 0 -250 15
-486 75 -253 64 -291 71 -310 55 -12 -10 -27 -5 -77 23 -77 43 -139 62 -288
87 -151 26 -202 44 -244 87 l-34 35 -51 -13 c-75 -19 -160 -1 -367 77 -289
109 -514 172 -640 179 -67 3 -84 12 -84 47 0 25 -46 56 -93 62 -326 42 -408
61 -562 133 -66 30 -284 123 -485 205 -542 223 -640 265 -727 314 -143 82
-168 119 -209 311 -24 114 -34 145 -34 107 -1 -71 -23 -213 -39 -250 -19 -41
-22 -44 -60 -44 -31 0 -44 6 -60 26 -46 58 -16 168 118 432 49 94 87 172 86
172 -2 0 -49 -55 -106 -122 -104 -122 -235 -238 -268 -238 -10 0 -26 9 -36 20
-16 17 -17 32 -11 127 3 60 9 125 12 146 4 22 2 37 -4 37 -5 0 -41 -38 -78
-85 -67 -83 -93 -103 -114 -90 -6 3 -31 42 -56 87 -58 99 -90 138 -115 138
-11 0 -35 -21 -56 -49 -21 -28 -41 -50 -45 -50 -3 -1 -2 16 4 37 24 85 -4 203
-97 417 -86 196 -94 263 -45 378 36 84 36 111 -1 115 -36 4 -67 -36 -75 -99
-7 -52 -35 -99 -60 -99 -42 0 -125 287 -174 610 -35 222 -25 291 59 437 78
135 88 183 40 183 -21 0 -76 -48 -97 -85 -6 -11 -14 -17 -17 -13 -4 4 -13 56
-21 117 -14 117 -32 173 -59 188 -27 16 -36 82 -41 328 -4 165 -1 268 9 362
14 128 16 137 70 245 64 130 196 355 288 488 69 101 240 276 379 388 479 383
1125 595 2075 681 262 24 465 34 840 40 445 7 586 5 820 -10z m1953 -200 c98
-17 135 -65 84 -106 -19 -15 -93 -17 -142 -3 -51 14 -144 72 -148 92 -2 12 5
18 30 21 66 8 113 7 176 -4z m-7001 -1798 c-7 -87 -74 -221 -110 -221 -5 0 -8
27 -5 63 6 92 67 217 106 217 12 0 14 -11 9 -59z m-127 -479 c0 -132 -92 -372
-142 -372 -38 0 46 332 103 405 31 38 39 31 39 -33z m691 -209 c16 -41 -4
-133 -49 -228 -39 -80 -94 -155 -115 -155 -18 0 0 159 27 236 13 39 29 82 36
95 18 34 61 79 77 79 7 0 18 -12 24 -27z m-366 -356 c15 -97 -29 -357 -70
-414 -33 -46 -65 -13 -65 65 0 54 45 258 70 322 37 93 54 100 65 27z m-717
-151 c4 -73 -9 -123 -29 -111 -10 7 -13 188 -2 198 16 16 28 -18 31 -87z
m11932 -135 c5 -11 10 -32 10 -48 -1 -60 -67 -160 -91 -136 -18 18 37 203 62
203 4 0 13 -9 19 -19z m-11049 -301 c28 -15 24 -34 -17 -70 -48 -42 -88 -39
-92 7 -5 55 56 91 109 63z m-407 -136 c27 -11 18 -29 -46 -91 -105 -100 -138
-106 -138 -28 0 50 20 98 47 114 20 11 112 15 137 5z m470 -83 c15 -23 -67
-291 -166 -541 -34 -87 -54 -127 -56 -113 -4 30 24 217 48 318 50 212 142 389
174 336z m164 -170 c5 -64 -23 -145 -59 -176 -40 -33 -63 -29 -67 12 -5 46 87
218 112 210 6 -2 12 -23 14 -46z m170 -266 c2 -30 -5 -56 -25 -95 -33 -63 -49
-72 -63 -35 -29 76 6 179 58 173 24 -3 27 -8 30 -43z m-1340 -82 c4 -40 -26
-73 -67 -73 -64 0 -80 29 -38 67 58 53 100 55 105 6z m426 -48 c58 -44 74
-123 31 -151 -52 -34 -105 12 -105 91 0 68 31 93 74 60z m566 -180 c16 -20 8
-73 -22 -131 -41 -82 -68 -69 -68 32 0 47 5 67 21 88 23 29 50 34 69 11z
m-512 -103 c6 -42 -97 -230 -119 -217 -12 8 -11 101 1 147 22 78 110 131 118
70z m962 -7 c0 -64 -118 -185 -180 -185 -31 0 -25 40 13 96 65 94 167 148 167
89z m-351 -150 c-34 -355 -82 -624 -144 -812 -48 -143 -118 -273 -148 -273
-16 0 -1 138 21 205 13 37 27 126 37 230 20 215 54 370 106 493 25 57 130 255
133 250 2 -2 -1 -43 -5 -93z m611 -15 c0 -29 -127 -102 -202 -116 -54 -9 -50
17 9 57 77 53 193 89 193 59z m-807 -99 c6 -26 -26 -95 -54 -115 -29 -20 -68
-21 -75 -1 -17 44 48 135 96 135 19 0 29 -6 33 -19z m1028 -83 c47 -24 64 -38
64 -53 0 -48 -131 -12 -160 45 -26 51 6 53 96 8z m-358 -48 c30 -24 62 -100
52 -128 -3 -12 -23 -29 -43 -39 -44 -21 -52 -50 -39 -132 7 -37 6 -71 -3 -108
-22 -100 -122 -173 -141 -103 -12 41 -10 275 2 332 17 76 45 136 80 169 37 34
57 36 92 9z m-948 -70 c11 -17 -31 -94 -69 -128 -21 -18 -40 -31 -43 -28 -8 7
17 76 44 124 23 41 54 55 68 32z m1320 -112 c33 -15 33 -47 -1 -87 -30 -36
-42 -33 -134 29 -87 59 -82 70 31 70 43 0 90 -5 104 -12z m458 -68 c29 -26
-68 -114 -101 -93 -35 21 -22 86 21 103 23 9 66 3 80 -10z m-204 -22 c-31 -58
-189 -179 -189 -144 0 21 46 73 110 123 62 48 99 58 79 21z m-271 -153 c5 -35
-96 -161 -114 -142 -8 7 35 113 58 142 23 30 52 30 56 0z m9709 -15 c-7 -54
-53 -132 -75 -128 -22 4 -28 60 -11 100 13 32 54 68 77 68 11 0 13 -9 9 -40z
m-10953 -83 c15 -11 16 -17 7 -34 -12 -24 -71 -63 -94 -63 -21 0 -39 33 -30
57 18 50 76 70 117 40z m1659 -20 c13 -34 -91 -236 -118 -230 -5 2 -11 27 -13
57 -3 63 27 147 62 171 26 19 62 19 69 2z m-833 -117 c13 -8 13 -12 0 -36 -19
-33 -81 -70 -103 -61 -22 8 -22 64 0 89 18 20 77 24 103 8z m1114 -19 c13 -13
22 -29 19 -37 -14 -37 -216 -55 -249 -23 -13 14 -14 20 -3 38 34 54 184 68
233 22z m-1974 -86 c32 -38 -37 -213 -110 -279 -62 -56 -74 -50 -67 32 7 88
21 130 60 189 44 65 91 89 117 58z m387 -159 c-7 -80 -40 -155 -77 -173 -34
-17 -51 -1 -43 40 8 43 57 177 84 229 l22 43 10 -35 c5 -19 7 -66 4 -104z
m688 79 c15 -118 -42 -225 -128 -243 -23 -5 -48 -7 -54 -4 -20 7 -15 48 11
100 33 65 136 202 152 202 8 0 15 -21 19 -55z m-421 -88 c15 -11 16 -17 6 -33
-17 -28 -72 -64 -97 -64 -37 0 -43 44 -12 84 23 29 72 35 103 13z m939 -74
c28 -32 40 -105 28 -165 -13 -60 -43 -115 -68 -125 -43 -17 -74 88 -55 195 17
100 55 138 95 95z m2001 -151 c22 -69 -103 -596 -200 -844 -43 -111 -71 -150
-132 -189 -87 -55 -121 -25 -65 57 45 66 83 158 98 235 8 41 21 112 30 159 33
173 156 493 219 568 32 37 42 40 50 14z m-1161 -64 c23 -27 22 -57 -5 -85 -50
-53 -130 -2 -106 68 17 49 75 58 111 17z m172 -15 c14 -21 25 -47 25 -59 0
-32 -38 -74 -65 -74 -30 0 -45 26 -45 79 0 94 40 119 85 54z m7711 26 c4 -7
-23 -39 -63 -78 -79 -74 -109 -114 -119 -157 -10 -46 -49 -107 -93 -147 -44
-40 -95 -69 -105 -60 -23 24 101 235 209 352 76 84 150 123 171 90z m-5929
-30 c177 -34 393 -112 393 -141 0 -14 -104 -8 -199 12 -177 37 -400 113 -409
138 -6 19 92 15 215 -9z m-3431 -66 c9 -69 -11 -340 -31 -435 -38 -178 -82
-183 -84 -10 -3 192 58 502 99 502 5 0 12 -26 16 -57z m1248 29 c15 -48 -38
-204 -77 -226 -24 -14 -47 15 -47 61 0 43 33 130 61 159 27 29 55 31 63 6z
m700 8 c33 -12 33 -30 -1 -62 -72 -66 -126 -54 -101 23 14 41 56 57 102 39z
m410 -11 c33 -26 35 -70 4 -99 -43 -39 -108 -11 -108 48 0 32 8 45 35 60 28
16 39 15 69 -9z m-1974 -65 c0 -43 -17 -94 -31 -94 -20 0 -26 99 -8 147 10 27
11 27 25 9 8 -11 14 -39 14 -62z m2666 51 c9 -13 21 -62 26 -107 13 -108 20
-120 44 -79 24 40 104 81 159 81 60 0 131 -27 160 -62 34 -40 32 -54 -12 -82
-52 -32 -121 -151 -194 -335 -59 -149 -66 -171 -51 -171 11 0 64 68 104 130
35 56 52 94 62 143 7 31 32 36 41 7 9 -27 -1 -78 -43 -213 -39 -128 -37 -149
9 -155 85 -10 94 -29 85 -189 -17 -300 -36 -423 -64 -423 -18 0 -41 37 -52 85
-7 31 -9 86 -6 145 8 116 1 109 -55 -60 -44 -132 -87 -228 -112 -249 -32 -26
-42 22 -42 207 0 94 -3 172 -6 172 -3 0 -11 -24 -18 -54 -26 -115 -88 -158
-123 -86 -20 39 -22 98 -9 205 11 84 2 149 -21 153 -21 4 -53 -63 -77 -164
-10 -43 -30 -128 -45 -189 -14 -60 -37 -140 -52 -177 -53 -139 -74 -107 -74
115 1 226 30 564 81 931 31 224 27 244 -37 170 -24 -28 -46 -44 -53 -40 -16
10 -14 143 4 202 17 59 53 97 86 92 20 -2 25 -11 33 -50 4 -27 13 -48 19 -48
5 0 33 19 61 43 102 87 141 99 172 52z m-2463 -137 c26 -35 15 -77 -25 -96
-45 -21 -97 16 -98 69 0 4 10 18 21 33 28 36 73 33 102 -6z m762 -4 c25 -10
45 -58 45 -108 0 -74 -82 -277 -97 -238 -8 22 -50 13 -104 -24 -29 -19 -64
-38 -79 -40 -58 -12 -101 95 -66 164 22 42 48 54 99 47 53 -8 63 2 111 107 19
42 43 81 53 87 22 13 18 12 38 5z m513 -65 c21 -38 9 -170 -20 -226 -28 -56
-51 -73 -75 -57 -39 25 -13 214 39 287 23 32 37 31 56 -4z m-248 2 c14 -28 12
-76 -5 -118 -11 -26 -19 -33 -26 -26 -11 11 -14 137 -4 153 10 16 23 12 35 -9z
m5290 -76 c14 -17 7 -57 -16 -79 -20 -20 -88 -21 -104 -1 -10 12 -6 22 28 55
42 42 71 50 92 25z m-3191 -31 c29 -37 27 -92 -8 -174 -38 -89 -54 -197 -40
-276 18 -101 20 -138 10 -154 -18 -26 -40 9 -52 81 -13 85 -27 99 -75 75 -46
-21 -59 -11 -57 46 2 51 56 231 95 318 49 109 87 134 127 84z m-3129 -24 c27
-27 25 -62 -4 -89 -31 -29 -73 -25 -99 10 -47 64 46 136 103 79z m342 3 c40
-36 8 -113 -49 -113 -55 0 -85 70 -46 112 20 22 70 23 95 1z m3173 -22 c13
-43 -63 -147 -103 -139 -45 9 -39 73 13 125 38 38 80 44 90 14z m-1861 -65
c14 -38 -7 -128 -60 -266 -54 -139 -100 -222 -149 -273 -43 -44 -62 -47 -76
-10 -13 35 8 134 67 306 79 229 127 299 189 277 11 -4 24 -19 29 -34z m2049
16 c39 -34 6 -112 -48 -112 -54 0 -87 78 -47 112 33 29 60 29 95 0z m-2759
-45 c18 -24 21 -43 21 -120 0 -109 -26 -195 -110 -374 -94 -198 -151 -268
-201 -249 -22 9 -13 45 58 216 130 312 180 500 150 557 -6 11 -8 23 -5 27 10
9 64 -26 87 -57z m-2370 -17 c22 -22 -74 -107 -107 -94 -37 14 -26 87 15 104
25 10 77 5 92 -10z m7997 10 c18 -10 18 -13 4 -45 -36 -87 -161 -242 -218
-272 -28 -14 -31 -14 -44 3 -37 51 67 247 162 306 34 20 67 23 96 8z m279 -17
c0 -26 -74 -144 -119 -191 -87 -89 -145 -53 -111 70 22 78 102 137 188 138 33
0 42 -4 42 -17z m-900 -38 c0 -38 -85 -241 -139 -332 -89 -150 -152 -210 -192
-185 -18 11 -19 10 -13 -12 8 -35 -52 -146 -159 -289 -122 -164 -204 -287
-233 -352 -33 -71 -49 -72 -41 -2 7 70 49 169 132 313 38 65 88 153 112 194
24 41 48 93 54 115 16 58 87 162 155 226 65 62 97 77 119 59 12 -10 15 -9 15
7 0 11 -5 34 -11 51 -22 63 19 132 115 193 72 45 86 48 86 14z m1382 -91 c-36
-119 -174 -384 -202 -384 -14 0 -13 8 11 81 47 143 136 335 177 382 11 12 19
14 26 7 7 -7 3 -34 -12 -86z m-7790 27 c48 -91 31 -175 -27 -137 -35 23 -48
61 -42 123 9 91 27 95 69 14z m397 17 c41 -37 64 -106 65 -186 1 -66 -2 -76
-23 -93 -26 -22 -88 -25 -111 -6 -61 49 -76 198 -29 276 23 38 64 42 98 9z
m4548 0 c19 -16 16 -69 -7 -105 -22 -37 -71 -66 -95 -57 -19 8 -45 55 -45 83
0 75 93 124 147 79z m4103 -11 c0 -24 -57 -101 -119 -161 -33 -33 -63 -58 -65
-55 -8 8 80 151 117 192 35 37 67 49 67 24z m-7890 -56 c0 -22 -7 -71 -15
-109 -15 -73 -81 -248 -96 -258 -22 -13 -13 170 11 248 18 60 75 158 91 158 5
0 9 -18 9 -39z m-420 -42 c0 -47 -16 -99 -30 -99 -20 0 -26 102 -10 145 16 42
40 15 40 -46z m937 44 c15 -23 18 -49 17 -168 0 -95 -5 -153 -15 -180 -13 -38
-17 -40 -54 -40 -44 0 -44 2 -30 -86 10 -62 -8 -79 -81 -79 -46 0 -59 4 -81
26 -23 23 -25 30 -19 75 14 105 129 378 187 444 37 42 53 44 76 8z m2398 7
c13 -10 13 -15 3 -21 -18 -12 -130 -11 -148 1 -13 9 -12 13 5 26 24 19 115 15
140 -6z m1238 -80 c-1 -19 -3 -46 -5 -60 -2 -21 2 -26 24 -28 35 -4 76 18 138
73 62 55 80 57 80 11 0 -45 -35 -80 -116 -117 -95 -43 -150 -98 -194 -195 -36
-76 -76 -124 -106 -124 -8 0 -24 10 -35 21 -18 18 -21 30 -17 79 5 69 35 119
91 150 59 34 70 58 62 135 -9 77 2 98 49 93 29 -3 31 -6 29 -38z m646 -2 c16
-44 -16 -88 -65 -88 -72 0 -81 20 -31 67 51 48 83 55 96 21z m-5058 -9 c45
-45 63 -136 35 -174 -13 -18 -14 -17 -30 8 -36 54 -61 187 -36 187 6 0 19 -9
31 -21z m3363 -32 c26 -36 28 -127 3 -173 -48 -91 -287 -111 -287 -24 0 42
-43 50 -129 24 -30 -8 -57 -12 -62 -7 -4 4 -1 23 8 42 23 47 88 76 141 62 60
-17 117 5 190 71 36 33 49 39 79 36 26 -2 42 -11 57 -31z m776 -37 c0 -58 -63
-161 -89 -145 -6 3 -11 27 -11 52 0 39 5 50 39 84 46 47 61 49 61 9z m-258
-37 c24 -22 23 -38 -11 -110 -35 -73 -70 -123 -87 -123 -29 0 -21 178 11 226
18 28 60 32 87 7z m2307 -65 c-67 -134 -130 -208 -150 -176 -14 22 -10 72 8
98 41 62 164 171 171 152 2 -6 -11 -39 -29 -74z m-2643 47 c11 -27 -6 -65 -48
-111 -22 -24 -44 -44 -49 -44 -24 0 14 106 53 148 25 26 36 28 44 7z m2274
-130 c0 -25 -189 -328 -311 -501 -92 -129 -162 -204 -167 -180 -5 21 75 188
133 277 123 191 345 450 345 404z m-990 -55 c26 -26 34 -61 27 -121 -8 -62
-14 -74 -34 -58 -25 21 -63 106 -63 142 0 55 34 73 70 37z m-5323 -30 c36 -71
-11 -300 -62 -300 -38 0 -47 229 -11 298 21 40 54 41 73 2z m3122 -26 c50 -99
61 -102 175 -48 65 31 87 36 149 37 112 0 187 -40 187 -102 0 -48 -151 -77
-350 -68 -147 8 -232 27 -280 66 -52 42 -52 73 2 128 58 59 83 56 117 -13z
m-1143 -15 c18 -20 18 -22 0 -67 -33 -87 -33 -99 8 -116 20 -8 36 -19 36 -24
0 -11 -30 -52 -89 -117 -24 -27 -55 -74 -68 -103 -23 -49 -29 -54 -106 -91
-45 -21 -127 -53 -182 -71 -135 -44 -248 -103 -265 -138 -7 -15 -16 -34 -20
-42 -6 -12 -36 -16 -143 -20 -131 -6 -138 -7 -179 -36 -23 -16 -56 -52 -73
-79 -25 -41 -30 -59 -30 -113 0 -57 3 -66 28 -88 34 -29 63 -33 52 -6 -24 56
-11 136 30 188 42 52 50 26 50 -166 0 -92 -3 -171 -7 -175 -4 -4 -46 3 -95 16
-146 39 -171 79 -151 247 19 169 -3 226 -98 252 -67 19 -124 64 -124 98 0 33
16 52 43 52 11 0 70 -23 132 -51 130 -59 155 -60 168 -9 5 19 12 38 16 43 4 4
70 9 147 11 142 4 178 12 222 50 25 22 29 58 7 76 -8 7 -46 16 -85 20 -109 12
-124 34 -62 95 104 103 472 304 662 361 97 30 151 31 176 3z m3959 11 c8 -14
-27 -77 -76 -135 -40 -48 -99 -156 -99 -183 0 -59 -167 -229 -196 -199 -13 12
79 192 173 340 24 38 70 95 101 128 55 56 84 71 97 49z m-730 -133 c-9 -32
-81 -117 -101 -117 -17 0 -18 -5 6 59 18 50 41 86 65 103 17 13 37 -17 30 -45z
m-754 -13 c11 -14 8 -21 -28 -55 -46 -43 -77 -49 -93 -20 -14 27 -13 35 11 65
16 20 29 26 59 26 22 0 43 -6 51 -16z m1920 0 c11 -14 8 -21 -28 -55 -46 -43
-77 -49 -93 -20 -11 22 -5 47 18 74 19 22 85 23 103 1z m-1413 -41 c2 -12 -3
-49 -12 -81 -20 -80 -152 -452 -164 -464 -7 -7 -39 9 -97 46 -83 54 -98 76
-52 76 73 1 92 30 74 115 -13 62 -4 88 30 93 33 5 55 38 64 93 9 60 48 115 93
135 41 18 60 14 64 -13z m-4226 -30 c22 -20 23 -70 1 -95 -36 -40 -113 -8
-113 49 0 55 70 85 112 46z m321 -5 c29 -15 19 -26 -28 -34 -62 -9 -117 2
-113 24 6 30 91 36 141 10z m2133 -48 c33 0 30 -21 -7 -45 -57 -37 -66 -73
-53 -201 5 -59 4 -75 -11 -98 -26 -40 -66 -33 -82 14 -14 41 -16 189 -4 243
15 63 68 104 119 90 8 -1 25 -3 38 -3z m-2989 -27 c21 -85 -4 -225 -43 -240
-56 -21 -56 127 0 235 20 39 33 41 43 5z m-908 -59 c30 -39 29 -123 -2 -160
-20 -23 -26 -25 -44 -15 -44 23 -54 122 -18 177 20 31 39 30 64 -2z m4240 11
c16 -8 32 -26 35 -41 7 -27 -9 -84 -24 -84 -15 0 -61 43 -75 70 -18 36 -18 35
1 54 19 20 28 20 63 1z m215 5 c14 -5 26 -16 26 -23 0 -15 -44 -59 -75 -75
-53 -27 -77 49 -29 87 30 24 42 25 78 11z m211 -15 c14 -13 25 -33 25 -45 0
-27 -43 -70 -70 -70 -21 0 -70 41 -70 59 0 26 22 62 42 71 36 14 47 12 73 -15z
m402 -1 c26 -16 37 -47 28 -81 -4 -19 -10 -23 -23 -17 -49 22 -101 16 -187
-21 -47 -21 -89 -35 -92 -32 -10 11 7 75 28 101 52 66 179 92 246 50z m1852
-76 c-46 -107 -499 -1022 -503 -1017 -5 6 12 386 19 433 11 72 25 116 37 116
6 0 19 -7 29 -16 10 -9 25 -14 32 -11 8 3 31 47 50 99 39 98 72 144 112 154
29 7 39 29 24 55 -17 33 7 84 75 156 63 68 148 131 154 114 2 -5 -11 -43 -29
-83z m541 58 c0 -22 -24 -82 -69 -171 -72 -141 -103 -185 -131 -185 -20 0 -60
80 -60 122 0 69 75 170 179 238 61 41 81 40 81 -4z m-6089 -45 c27 -22 32 -83
8 -107 -14 -14 -19 -13 -46 10 -40 34 -60 80 -43 101 17 20 53 19 81 -4z m344
-6 c30 -29 32 -55 7 -86 -22 -26 -75 -31 -97 -8 -28 29 -29 66 -1 93 32 33 60
33 91 1z m1868 -86 c5 -9 7 -29 3 -44 -9 -36 -68 -95 -95 -95 -51 0 -42 79 15
130 38 33 60 36 77 9z m-799 -49 c38 -42 94 -145 84 -155 -3 -3 -17 -1 -32 5
-37 14 -71 3 -100 -31 -34 -40 -86 -69 -123 -69 -48 0 -48 15 -1 51 60 45 70
59 57 76 -6 7 -17 13 -24 13 -7 0 -23 8 -36 19 -20 16 -22 22 -12 44 16 35 90
87 123 87 20 0 38 -12 64 -40z m564 -22 c8 -92 -114 -212 -134 -133 -15 58 62
180 108 173 19 -2 24 -10 26 -40z m-3743 -58 c49 -16 97 -30 106 -30 29 0 32
-18 10 -61 -12 -22 -21 -49 -21 -60 0 -31 25 -72 59 -97 46 -34 66 -68 51 -87
-10 -13 -16 -13 -40 0 -72 37 -285 323 -265 355 8 13 -3 15 100 -20z m6709 24
c25 -10 19 -40 -15 -68 -33 -28 -72 -42 -88 -31 -18 11 -12 64 9 85 20 20 63
26 94 14z m-6234 -120 c0 -68 -14 -119 -30 -109 -11 7 -14 188 -3 199 16 16
33 -31 33 -90z m762 15 c18 -78 -20 -167 -68 -157 -42 8 -28 124 22 179 23 26
37 19 46 -22z m6304 6 c11 -27 -6 -65 -48 -111 -62 -67 -75 -56 -37 33 20 48
55 93 71 93 5 0 11 -7 14 -15z m-4746 -10 c17 -9 33 -28 40 -49 34 -105 -98
-249 -214 -232 -52 8 -137 -7 -198 -35 -53 -25 -78 -20 -78 15 0 32 62 85 131
111 60 23 151 100 169 145 23 54 92 75 150 45z m1388 -39 c17 -16 -12 -54 -61
-81 -30 -16 -38 -17 -51 -6 -30 25 -14 84 27 101 26 11 67 4 85 -14z m200 2
c20 -17 14 -57 -18 -122 -38 -77 -73 -121 -88 -112 -15 9 -16 137 -2 188 17
60 64 80 108 46z m-2642 -67 c90 -55 43 -217 -53 -180 -40 15 -81 57 -94 96
-25 77 70 131 147 84z m3998 9 c14 -5 26 -16 26 -25 0 -16 -51 -66 -78 -76
-52 -19 -72 54 -26 90 30 24 42 25 78 11z m-2454 -79 c0 -11 -102 -101 -180
-158 -115 -85 -202 -116 -213 -74 -16 64 110 177 251 222 61 19 142 25 142 10z
m2748 -108 c6 -97 -65 -188 -235 -305 -59 -40 -111 -74 -115 -76 -11 -5 137
243 189 316 47 67 116 125 142 120 12 -2 17 -18 19 -55z m-2204 -19 c25 -10
19 -40 -15 -68 -33 -28 -72 -42 -88 -31 -18 11 -12 64 9 85 20 20 63 26 94 14z
m-2618 -72 c6 -4 16 -17 23 -30 10 -19 9 -30 -8 -65 -26 -55 -70 -82 -97 -62
-25 18 -26 100 -1 138 17 27 58 36 83 19z m1489 -13 c55 -15 95 -54 95 -95 0
-37 -21 -58 -48 -50 -49 16 -129 -111 -140 -222 -6 -57 -10 -68 -31 -79 -35
-17 -58 -1 -72 50 -20 76 10 203 51 214 27 7 34 36 20 94 -14 57 -9 76 22 89
31 12 56 12 103 -1z m1623 -106 c2 -22 -3 -38 -17 -52 -40 -40 -132 -16 -104
27 16 27 75 63 98 60 14 -2 21 -12 23 -35z m-1341 -64 c30 -46 24 -72 -19 -77
-39 -5 -72 29 -71 72 2 77 41 79 90 5z m206 50 c50 -23 55 -93 8 -118 -30 -16
-52 -13 -78 11 -44 41 -23 97 44 117 1 1 13 -4 26 -10z m561 -24 c8 -21 -11
-77 -39 -115 -60 -81 -136 -78 -121 5 16 81 138 166 160 110z m-1834 -186 c0
-47 -16 -99 -30 -99 -20 0 -26 102 -10 145 16 42 40 15 40 -46z m225 45 c30
-32 55 -105 55 -160 0 -74 -36 -70 -74 9 -29 61 -41 117 -32 152 8 32 21 32
51 -1z m1081 -49 c18 -14 17 -16 -24 -56 -32 -30 -49 -40 -70 -37 -21 2 -28 9
-30 32 -7 59 74 99 124 61z m1304 -34 c36 -68 -45 -228 -98 -195 -40 26 -31
129 15 185 29 34 67 38 83 10z m3493 -62 c-34 -58 -157 -156 -184 -147 -18 6
47 84 111 131 75 57 100 62 73 16z m-1123 -38 c0 -23 -16 -43 -63 -79 -58 -44
-167 -107 -167 -97 0 4 26 34 58 67 77 83 172 142 172 109z m2070 -6 c0 -38
-70 -122 -140 -169 -30 -20 -69 -21 -76 -2 -11 30 61 120 136 170 32 21 80 21
80 1z m-6293 -82 c12 -45 9 -215 -5 -255 -17 -48 -37 -65 -57 -48 -29 24 -13
218 26 304 16 33 27 33 36 -1z m963 12 c11 -13 9 -20 -11 -41 -24 -26 -70 -54
-88 -54 -16 0 -33 39 -26 60 4 11 13 27 21 35 20 20 88 19 104 0z m4986 -207
c11 -18 -47 -63 -105 -83 -29 -9 -55 -14 -59 -10 -4 4 17 29 46 56 54 49 101
64 118 37z m-4576 -177 c0 -31 -47 -100 -85 -125 -23 -15 -25 -15 -25 1 0 10
13 46 29 80 39 83 81 106 81 44z m-2622 -57 c67 -33 94 -67 90 -113 -2 -19 -9
-36 -16 -39 -15 -5 -140 118 -161 156 -11 20 -9 22 12 22 13 0 46 -12 75 -26z
m1381 -156 c-18 -163 -74 -317 -135 -375 -20 -19 -38 -32 -40 -30 -2 2 7 28
20 58 30 69 60 170 81 279 44 219 96 267 74 68z m1978 -44 c7 -21 -48 -73 -88
-85 -29 -9 -45 -9 -64 -1 -32 15 -24 33 26 61 69 39 118 48 126 25z m-1561
-122 c-14 -103 -50 -103 -50 1 0 81 10 99 37 66 15 -19 18 -33 13 -67z m284
-200 c0 -26 -162 -172 -191 -172 -35 0 21 74 102 134 57 43 89 57 89 38z m-5
-252 c0 -39 -47 -65 -116 -64 -33 1 -65 6 -72 13 -17 17 21 50 83 71 65 22
105 14 105 -20z"/>
<path d="M4740 10284 c-378 -27 -701 -105 -953 -228 -62 -30 -195 -108 -297
-172 -438 -277 -613 -376 -747 -419 -44 -14 -108 -46 -145 -71 -137 -93 -333
-331 -404 -489 -45 -102 -64 -220 -64 -405 0 -181 16 -297 56 -420 78 -234
244 -476 586 -855 180 -199 673 -697 831 -838 294 -265 555 -451 802 -572 176
-86 317 -136 545 -195 116 -29 196 -57 270 -92 201 -96 603 -209 1100 -308
113 -23 257 -59 320 -80 273 -92 636 -130 1265 -130 639 0 1382 46 1610 100
307 72 767 341 1150 671 187 161 291 287 360 434 173 370 188 727 43 1060 -65
148 -244 437 -354 572 -33 40 -68 94 -77 121 -27 74 -110 151 -432 397 -226
173 -404 319 -558 458 -211 190 -362 274 -637 356 -235 70 -379 124 -755 283
-714 302 -1030 422 -1225 468 -159 37 -339 87 -516 145 -212 69 -285 88 -459
119 -357 62 -610 86 -970 90 -159 2 -315 2 -345 0z m465 -129 c246 -9 576 -43
785 -81 148 -27 278 -63 403 -113 177 -71 328 -116 517 -156 236 -50 379 -95
820 -260 246 -91 393 -160 519 -243 51 -34 97 -62 102 -62 5 0 12 7 15 15 9
22 21 19 93 -24 82 -49 189 -87 401 -141 189 -48 250 -70 375 -133 134 -67
275 -164 520 -357 121 -96 267 -210 325 -254 210 -160 258 -210 358 -376 28
-47 73 -111 99 -144 139 -170 177 -228 253 -381 113 -230 186 -448 211 -630
23 -164 -22 -439 -96 -587 -50 -99 -89 -150 -187 -244 -84 -80 -130 -115 -400
-303 -82 -56 -190 -134 -240 -174 -131 -102 -143 -110 -243 -160 -208 -104
-341 -132 -770 -167 -519 -41 -1480 -65 -1693 -41 -96 10 -842 156 -1141 222
-337 75 -638 164 -916 273 -144 56 -201 72 -322 91 -114 18 -236 64 -419 159
-335 175 -703 422 -937 630 -134 120 -728 707 -855 845 -315 345 -436 551
-504 861 -19 89 -23 132 -22 280 1 156 4 186 27 274 37 139 98 257 167 326 31
30 103 84 161 120 196 121 686 359 827 401 34 10 49 10 82 -1 51 -17 133 -3
310 50 258 78 333 95 519 116 165 18 221 39 221 82 0 16 -7 35 -15 42 -24 20
-173 6 -305 -29 -63 -17 -171 -46 -240 -64 -173 -47 -218 -53 -227 -31 -14 37
153 156 350 249 117 56 196 81 312 101 102 18 385 33 520 28 50 -2 158 -6 240
-9z"/>
<path d="M5644 9930 c-66 -7 -84 -15 -84 -34 0 -37 147 -60 340 -53 150 5 193
12 187 30 -12 38 -297 75 -443 57z"/>
<path d="M5305 9685 c6 -2 109 -16 230 -30 451 -54 727 -101 773 -133 64 -44
86 -34 44 21 -45 60 -121 85 -340 112 -136 17 -742 42 -707 30z"/>
<path d="M4337 9539 c-307 -30 -770 -192 -909 -317 -37 -33 -38 -36 -32 -83 6
-47 5 -49 -38 -91 -58 -57 -77 -101 -57 -137 32 -58 105 -26 218 95 81 87 95
119 62 145 -12 10 -27 19 -33 21 -23 8 6 31 86 69 167 78 506 174 701 199 125
16 183 31 203 53 16 18 16 20 -3 33 -10 8 -30 14 -44 14 -14 0 -35 2 -46 4
-11 2 -60 0 -108 -5z"/>
<path d="M5260 9401 l-95 -6 80 -7 c44 -4 195 -19 335 -32 314 -31 758 -61
749 -51 -18 17 -224 68 -329 81 -136 16 -586 26 -740 15z"/>
<path d="M3952 9274 c-32 -16 -50 -53 -37 -73 11 -18 82 -12 130 10 86 40 84
67 -6 75 -39 3 -63 0 -87 -12z"/>
<path d="M5345 9180 c-149 -15 -282 -54 -292 -86 -5 -17 26 -22 182 -35 253
-21 747 0 779 32 53 51 -415 114 -669 89z"/>
<path d="M3849 8995 c-156 -28 -238 -54 -353 -113 -151 -77 -281 -185 -325
-269 -14 -27 -15 -110 -1 -118 15 -9 48 12 140 92 121 105 306 226 515 337 99
53 173 95 165 95 -8 -1 -72 -11 -141 -24z"/>
<path d="M5205 8870 c-82 -7 -155 -31 -155 -49 0 -34 167 -63 375 -65 110 -1
172 3 198 12 147 52 -158 127 -418 102z"/>
<path d="M3901 8635 c-93 -21 -177 -50 -348 -121 -208 -86 -267 -118 -324
-171 -74 -69 -93 -135 -119 -418 -5 -60 -13 -132 -16 -158 l-6 -48 168 112
c190 126 319 192 420 215 127 28 148 37 159 67 8 24 6 31 -10 44 -45 33 -189
-11 -469 -142 -103 -48 -189 -86 -191 -83 -3 2 10 24 27 48 56 76 204 158 464
255 216 81 291 125 248 142 -52 21 -197 2 -368 -48 -154 -45 -187 -38 -90 21
142 86 455 175 653 186 126 7 146 11 132 28 -6 7 -43 28 -81 46 -84 38 -158
46 -249 25z"/>
<path d="M5410 8614 c-19 -2 -78 -9 -130 -15 -150 -17 -287 -54 -343 -91 -25
-18 -27 -23 -21 -71 6 -49 4 -55 -25 -86 -17 -18 -31 -37 -31 -42 0 -18 87
-24 360 -24 277 1 430 13 430 36 0 34 -94 53 -353 69 -206 14 -219 17 -179 52
35 32 89 51 177 64 216 33 521 1 658 -68 32 -16 63 -26 68 -22 14 8 3 63 -16
85 -26 27 -145 77 -227 93 -76 16 -301 28 -368 20z"/>
<path d="M5058 8080 c-178 -22 -265 -79 -193 -126 28 -19 75 -16 210 10 46 9
198 21 357 28 153 6 277 13 275 14 -1 1 -75 19 -164 38 -177 40 -354 53 -485
36z"/>
<path d="M3620 7901 c-117 -47 -318 -152 -373 -195 -19 -14 -84 -232 -73 -243
3 -4 57 43 119 104 111 109 144 133 202 147 64 16 176 124 187 180 4 26 -10
28 -62 7z"/>
<path d="M4870 7779 c-41 -5 -88 -14 -106 -19 -62 -21 -121 -114 -88 -141 17
-14 46 -7 139 31 131 54 199 57 773 34 178 -7 201 0 106 35 -146 55 -588 87
-824 60z"/>
<path d="M10120 7682 c69 -122 526 -612 571 -612 70 0 -308 456 -500 601 -80
61 -101 64 -71 11z"/>
<path d="M3875 7693 c-161 -33 -595 -294 -676 -406 -35 -48 -36 -57 -6 -57 29
1 128 55 307 168 80 51 212 127 293 168 140 71 171 95 151 114 -13 12 -46 18
-69 13z"/>
<path d="M10421 7645 c8 -11 60 -72 115 -135 94 -107 146 -152 160 -137 15 15
-15 52 -114 140 -132 117 -182 158 -161 132z"/>
<path d="M9810 7632 c0 -5 14 -29 31 -53 115 -160 683 -730 710 -713 33 20
-280 419 -469 596 -115 108 -272 206 -272 170z"/>
<path d="M5090 7480 c-190 -25 -340 -92 -340 -152 0 -23 -5 -23 155 10 89 19
374 41 530 42 28 0 57 5 65 10 13 9 12 13 -8 30 -64 54 -245 81 -402 60z"/>
<path d="M3605 7331 c-123 -60 -271 -219 -236 -254 13 -13 58 6 145 63 213
140 281 283 91 191z"/>
<path d="M9639 7333 c39 -73 286 -356 478 -551 137 -137 257 -237 274 -226 21
13 -57 142 -167 274 -91 110 -365 375 -469 453 -89 66 -136 87 -116 50z"/>
<path d="M5073 7136 c-85 -16 -203 -54 -203 -66 0 -4 17 -10 38 -14 56 -9 625
-7 640 3 10 6 2 13 -28 25 -141 56 -316 77 -447 52z"/>
<path d="M3720 7031 c-176 -50 -219 -68 -262 -109 -68 -63 -4 -105 103 -66 24
8 103 33 175 54 152 44 207 70 231 106 16 26 16 27 -6 45 -33 27 -55 24 -241
-30z"/>
<path d="M9580 6942 c0 -29 94 -137 304 -350 191 -193 242 -240 252 -230 14
16 64 141 64 161 0 10 -7 13 -20 10 -41 -11 -136 55 -335 231 -158 141 -265
213 -265 178z"/>
<path d="M5080 6868 c-97 -9 -251 -48 -307 -77 -43 -22 -110 -87 -100 -97 3
-4 44 3 90 15 46 12 141 26 213 31 71 5 184 14 252 19 94 6 127 13 142 26 15
14 17 22 9 37 -23 43 -138 61 -299 46z"/>
<path d="M3740 6794 c-81 -22 -139 -60 -157 -101 -13 -32 -13 -38 1 -51 20
-21 103 -6 212 38 115 46 178 99 143 121 -21 13 -138 9 -199 -7z"/>
<path d="M9430 6667 c0 -71 364 -420 409 -392 17 10 -20 72 -96 160 -134 154
-313 287 -313 232z"/>
<path d="M5105 6603 c-65 -10 -137 -36 -163 -58 l-27 -23 29 -11 c35 -14 320
-15 396 -2 73 12 112 28 108 44 -2 6 -22 21 -44 32 -31 15 -63 19 -154 21 -63
1 -128 0 -145 -3z"/>
<path d="M9270 6440 c0 -42 197 -233 235 -228 30 4 33 69 5 105 -38 48 -139
113 -204 131 -32 9 -36 8 -36 -8z"/>
<path d="M8850 6352 c0 -23 20 -41 85 -76 65 -35 205 -160 355 -318 152 -159
280 -259 280 -218 0 43 -126 205 -256 329 -214 205 -464 357 -464 283z"/>
<path d="M5370 6283 c-84 -12 -199 -36 -211 -43 -24 -15 -4 -21 105 -31 161
-15 356 11 356 47 0 8 -12 19 -26 24 -24 9 -170 12 -224 3z"/>
<path d="M8950 5982 c0 -30 95 -145 226 -272 130 -127 212 -190 246 -190 111
0 -289 426 -441 470 -26 7 -31 6 -31 -8z"/>
<path d="M8670 5894 c0 -10 48 -64 112 -124 283 -267 324 -312 342 -372 19
-66 51 -97 131 -127 89 -33 92 -28 44 58 -99 176 -332 428 -479 518 -98 60
-150 76 -150 47z"/>
<path d="M8450 5777 c0 -58 359 -475 449 -522 100 -51 -20 117 -256 358 -132
134 -193 186 -193 164z"/>
<path d="M8250 5483 c0 -49 190 -303 227 -303 19 0 16 18 -11 75 -65 138 -216
297 -216 228z"/>
<path d="M7786 5441 c-19 -31 108 -187 183 -225 62 -33 67 11 10 97 -52 78
-174 159 -193 128z"/>
<path d="M1778 7603 c-35 -22 -60 -67 -60 -110 0 -75 38 -65 78 22 24 51 30
90 16 99 -4 2 -19 -3 -34 -11z"/>
<path d="M4888 4153 c-61 -69 -169 -403 -130 -403 41 0 117 159 147 307 18 91
12 129 -17 96z"/>
<path d="M4164 3241 c-85 -21 -194 -102 -181 -135 9 -23 37 -20 104 14 78 39
153 107 133 120 -8 6 -17 9 -20 9 -3 -1 -19 -4 -36 -8z"/>
<path d="M3805 3055 c-20 -19 -35 -40 -33 -47 3 -7 21 -17 41 -22 43 -11 83
10 93 49 16 65 -42 76 -101 20z"/>
<path d="M60 6813 c-26 -9 -60 -46 -60 -64 0 -32 34 -62 69 -61 37 1 96 42
106 73 14 43 -54 74 -115 52z"/>
<path d="M10667 1943 c-16 -15 -5 -55 24 -88 35 -40 54 -44 69 -16 15 30 12
56 -11 85 -20 25 -66 36 -82 19z"/>
</g>
</svg>
